# xmcd
#
# Track frame offsets: 
#        150
#        25610
#        54695
#        84838
#        110802
#        124283
#        149540
#        161219
#        184550
#        213631
#
# Disc length: 3250 seconds
#
# Revision: 1
# Processed by: cddbd v1.5.2PL0 Copyright (c) Steve Scherf et al.
# Submitted via: ExactAudioCopy v1.0b1
#
DISCID=900cb00a
DTITLE=Silvia Pérez Cruz and Javier Colina Trio - En la imaginación
DYEAR=2011
DGENRE=Jazz
TTITLE0=Debi llorar
TTITLE1=Qué dirías de mí
TTITLE2=Mi mejor canción
TTITLE3=Belén
TTITLE4=Ella y yo
TTITLE5=En la imaginación
TTITLE6=La tarde
TTITLE7=Llora
TTITLE8=Si te contara
TTITLE9=El panquelero
EXTD=YEAR: 2011
EXTT0=
EXTT1=
EXTT2=
EXTT3=
EXTT4=
EXTT5=
EXTT6=
EXTT7=
EXTT8=
EXTT9=
PLAYORDER=
